<svg xmlns="http://www.w3.org/2000/svg" xmlns:xlink="http://www.w3.org/1999/xlink" width="512" zoomAndPan="magnify" viewBox="0 0 384 383.999986" height="512" preserveAspectRatio="xMidYMid meet" version="1.0"><defs><g/></defs><g fill="#65e2b9" fill-opacity="1"><g transform="translate(70.345314, 216.749983)"><g><path d="M 5.46875 0 L 5.46875 -51.796875 L 37.515625 -51.796875 L 37.515625 -46.6875 L 11.6875 -46.6875 L 11.6875 -28.640625 L 35.296875 -28.640625 L 35.296875 -23.609375 L 11.6875 -23.609375 L 11.6875 -5.109375 L 37.515625 -5.109375 L 37.515625 0 Z M 5.46875 0 "/></g></g></g><g fill="#65e2b9" fill-opacity="1"><g transform="translate(112.076878, 216.749983)"><g><path d="M 5.109375 0 L 5.109375 -53.28125 L 11.328125 -53.28125 L 11.328125 -21.234375 L 26.34375 -36.703125 L 33.96875 -36.703125 L 17.6875 -20.125 L 36.03125 0 L 28.125 0 L 11.328125 -19.015625 L 11.328125 0 Z M 5.109375 0 "/></g></g></g><g fill="#65e2b9" fill-opacity="1"><g transform="translate(146.705095, 216.749983)"><g><path d="M 21.828125 0.890625 C 18.378906 0.890625 15.269531 0.101562 12.5 -1.46875 C 9.738281 -3.050781 7.554688 -5.285156 5.953125 -8.171875 C 4.347656 -11.054688 3.546875 -14.453125 3.546875 -18.359375 C 3.546875 -22.253906 4.359375 -25.644531 5.984375 -28.53125 C 7.617188 -31.414062 9.828125 -33.644531 12.609375 -35.21875 C 15.398438 -36.800781 18.523438 -37.59375 21.984375 -37.59375 C 25.429688 -37.59375 28.535156 -36.800781 31.296875 -35.21875 C 34.066406 -33.644531 36.25 -31.414062 37.84375 -28.53125 C 39.445312 -25.644531 40.25 -22.253906 40.25 -18.359375 C 40.25 -14.453125 39.4375 -11.054688 37.8125 -8.171875 C 36.1875 -5.285156 33.976562 -3.050781 31.1875 -1.46875 C 28.40625 0.101562 25.285156 0.890625 21.828125 0.890625 Z M 21.828125 -4.4375 C 23.953125 -4.4375 25.925781 -4.953125 27.75 -5.984375 C 29.570312 -7.023438 31.050781 -8.582031 32.1875 -10.65625 C 33.320312 -12.726562 33.890625 -15.296875 33.890625 -18.359375 C 33.890625 -21.410156 33.332031 -23.972656 32.21875 -26.046875 C 31.113281 -28.117188 29.648438 -29.671875 27.828125 -30.703125 C 26.003906 -31.742188 24.054688 -32.265625 21.984375 -32.265625 C 19.859375 -32.265625 17.878906 -31.742188 16.046875 -30.703125 C 14.222656 -29.671875 12.742188 -28.117188 11.609375 -26.046875 C 10.484375 -23.972656 9.921875 -21.410156 9.921875 -18.359375 C 9.921875 -15.296875 10.484375 -12.726562 11.609375 -10.65625 C 12.742188 -8.582031 14.210938 -7.023438 16.015625 -5.984375 C 17.816406 -4.953125 19.753906 -4.4375 21.828125 -4.4375 Z M 21.828125 -4.4375 "/></g></g></g><g fill="#65e2b9" fill-opacity="1"><g transform="translate(190.50844, 216.749983)"><g><path d="M 5.109375 0 L 5.109375 -36.703125 L 10.734375 -36.703125 L 11.09375 -30.125 C 12.28125 -32.4375 13.984375 -34.257812 16.203125 -35.59375 C 18.421875 -36.925781 20.9375 -37.59375 23.75 -37.59375 C 28.09375 -37.59375 31.554688 -36.269531 34.140625 -33.625 C 36.734375 -30.988281 38.03125 -26.929688 38.03125 -21.453125 L 38.03125 0 L 31.8125 0 L 31.8125 -20.796875 C 31.8125 -28.441406 28.65625 -32.265625 22.34375 -32.265625 C 19.1875 -32.265625 16.5625 -31.113281 14.46875 -28.8125 C 12.375 -26.519531 11.328125 -23.253906 11.328125 -19.015625 L 11.328125 0 Z M 5.109375 0 "/></g></g></g><g fill="#65e2b9" fill-opacity="1"><g transform="translate(232.831938, 216.749983)"><g><path d="M 21.828125 0.890625 C 18.378906 0.890625 15.269531 0.101562 12.5 -1.46875 C 9.738281 -3.050781 7.554688 -5.285156 5.953125 -8.171875 C 4.347656 -11.054688 3.546875 -14.453125 3.546875 -18.359375 C 3.546875 -22.253906 4.359375 -25.644531 5.984375 -28.53125 C 7.617188 -31.414062 9.828125 -33.644531 12.609375 -35.21875 C 15.398438 -36.800781 18.523438 -37.59375 21.984375 -37.59375 C 25.429688 -37.59375 28.535156 -36.800781 31.296875 -35.21875 C 34.066406 -33.644531 36.25 -31.414062 37.84375 -28.53125 C 39.445312 -25.644531 40.25 -22.253906 40.25 -18.359375 C 40.25 -14.453125 39.4375 -11.054688 37.8125 -8.171875 C 36.1875 -5.285156 33.976562 -3.050781 31.1875 -1.46875 C 28.40625 0.101562 25.285156 0.890625 21.828125 0.890625 Z M 21.828125 -4.4375 C 23.953125 -4.4375 25.925781 -4.953125 27.75 -5.984375 C 29.570312 -7.023438 31.050781 -8.582031 32.1875 -10.65625 C 33.320312 -12.726562 33.890625 -15.296875 33.890625 -18.359375 C 33.890625 -21.410156 33.332031 -23.972656 32.21875 -26.046875 C 31.113281 -28.117188 29.648438 -29.671875 27.828125 -30.703125 C 26.003906 -31.742188 24.054688 -32.265625 21.984375 -32.265625 C 19.859375 -32.265625 17.878906 -31.742188 16.046875 -30.703125 C 14.222656 -29.671875 12.742188 -28.117188 11.609375 -26.046875 C 10.484375 -23.972656 9.921875 -21.410156 9.921875 -18.359375 C 9.921875 -15.296875 10.484375 -12.726562 11.609375 -10.65625 C 12.742188 -8.582031 14.210938 -7.023438 16.015625 -5.984375 C 17.816406 -4.953125 19.753906 -4.4375 21.828125 -4.4375 Z M 21.828125 -4.4375 "/></g></g></g><g fill="#65e2b9" fill-opacity="1"><g transform="translate(276.635283, 216.749983)"><g><path d="M 19.171875 0.890625 C 14.773438 0.890625 11.117188 -0.21875 8.203125 -2.4375 C 5.296875 -4.65625 3.597656 -7.664062 3.109375 -11.46875 L 9.46875 -11.46875 C 9.863281 -9.539062 10.882812 -7.875 12.53125 -6.46875 C 14.1875 -5.0625 16.421875 -4.359375 19.234375 -4.359375 C 21.847656 -4.359375 23.769531 -4.914062 25 -6.03125 C 26.238281 -7.144531 26.859375 -8.460938 26.859375 -9.984375 C 26.859375 -12.203125 26.054688 -13.679688 24.453125 -14.421875 C 22.847656 -15.171875 20.59375 -15.835938 17.6875 -16.421875 C 15.707031 -16.816406 13.734375 -17.382812 11.765625 -18.125 C 9.796875 -18.863281 8.144531 -19.910156 6.8125 -21.265625 C 5.476562 -22.628906 4.8125 -24.421875 4.8125 -26.640625 C 4.8125 -29.847656 6.003906 -32.472656 8.390625 -34.515625 C 10.785156 -36.566406 14.03125 -37.59375 18.125 -37.59375 C 22.019531 -37.59375 25.210938 -36.617188 27.703125 -34.671875 C 30.203125 -32.722656 31.648438 -29.945312 32.046875 -26.34375 L 25.90625 -26.34375 C 25.65625 -28.21875 24.847656 -29.6875 23.484375 -30.75 C 22.128906 -31.8125 20.320312 -32.34375 18.0625 -32.34375 C 15.832031 -32.34375 14.113281 -31.875 12.90625 -30.9375 C 11.695312 -30 11.09375 -28.765625 11.09375 -27.234375 C 11.09375 -25.753906 11.867188 -24.59375 13.421875 -23.75 C 14.984375 -22.914062 17.097656 -22.203125 19.765625 -21.609375 C 22.023438 -21.117188 24.175781 -20.515625 26.21875 -19.796875 C 28.269531 -19.078125 29.945312 -18.015625 31.25 -16.609375 C 32.5625 -15.203125 33.21875 -13.171875 33.21875 -10.515625 C 33.269531 -7.203125 32.023438 -4.472656 29.484375 -2.328125 C 26.941406 -0.179688 23.503906 0.890625 19.171875 0.890625 Z M 19.171875 0.890625 "/></g></g></g></svg>